<?xml version="1.0" standalone="no"?>
<!DOCTYPE svg PUBLIC "-//W3C//DTD SVG 20010904//EN"
 "http://www.w3.org/TR/2001/REC-SVG-20010904/DTD/svg10.dtd">
<svg version="1.0" xmlns="http://www.w3.org/2000/svg"
 width="16.000000pt" height="16.000000pt" viewBox="0 0 16.000000 16.000000"
 preserveAspectRatio="xMidYMid meet">
<metadata>
Created by potrace 1.11, written by Peter Selinger 2001-2013
</metadata>
<g transform="translate(0.000000,16.000000) scale(0.004092,-0.004092)"
fill="#000000" stroke="none">
<path d="M1795 3899 c-375 -29 -743 -173 -1050 -413 -89 -69 -249 -230 -319
-321 -278 -358 -416 -762 -416 -1213 1 -824 517 -1553 1296 -1831 358 -128
797 -145 1156 -46 630 174 1127 637 1336 1245 85 249 106 397 99 696 -4 186
-9 237 -31 339 -83 383 -268 720 -542 991 -264 261 -622 452 -979 523 -90 18
-358 43 -417 40 -13 -1 -72 -6 -133 -10z m400 -59 c304 -40 561 -136 816 -306
139 -93 317 -254 421 -382 298 -370 443 -822 417 -1303 -15 -265 -70 -478
-189 -724 -262 -543 -780 -931 -1380 -1036 -471 -83 -979 24 -1372 288 -284
192 -513 454 -658 755 -138 287 -197 564 -187 881 11 370 110 686 310 987 193
292 434 504 752 662 216 108 425 164 720 192 60 6 260 -2 350 -14z"/>
<path d="M1897 3664 c-3 -3 -32 -7 -64 -8 l-58 -1 -5 -55 c-4 -47 -6 -51 -13
-27 -12 43 -42 67 -85 67 -21 0 -48 -7 -60 -16 -12 -8 -31 -13 -41 -9 -10 3
-31 0 -47 -6 -16 -6 -42 -13 -58 -16 -16 -3 -39 -9 -52 -13 -20 -8 -22 -13
-13 -42 5 -18 9 -34 9 -35 0 -1 -14 5 -31 14 -37 19 -107 13 -145 -12 -40 -26
-59 -81 -46 -130 11 -37 10 -42 -14 -62 -14 -13 -34 -23 -44 -23 -28 0 -61 40
-58 70 3 23 16 33 86 67 9 4 -24 86 -35 90 -20 8 -87 -25 -117 -56 -60 -63
-68 -137 -21 -210 33 -53 65 -71 128 -71 42 0 63 6 100 30 26 16 50 37 53 45
4 8 17 15 30 15 41 0 103 31 125 62 16 22 24 26 30 17 6 -11 18 -10 61 3 29 9
72 19 96 23 23 4 48 13 56 20 8 9 17 10 23 4 5 -5 21 -5 41 0 17 5 55 11 84
12 29 1 57 4 62 7 6 3 34 4 64 3 37 -2 58 2 63 11 7 11 9 11 9 0 0 -10 16 -13
58 -11 42 2 66 -2 83 -14 13 -9 42 -17 64 -17 22 0 56 -4 74 -10 25 -7 39 -6
49 2 11 10 16 8 23 -5 14 -25 66 -49 98 -45 18 1 38 -6 58 -23 34 -28 114 -55
138 -46 8 4 15 16 15 27 0 11 7 23 15 26 22 9 49 88 40 121 -15 63 -85 102
-149 84 -34 -9 -36 -8 -30 13 4 16 0 25 -11 29 -10 5 -15 16 -13 34 3 25 0 28
-46 35 -38 7 -52 6 -66 -7 -14 -13 -25 -13 -74 -4 -31 7 -59 9 -62 6 -4 -3
-10 -21 -15 -39 l-9 -33 5 37 c2 21 0 40 -4 42 -4 3 -30 8 -58 12 l-51 6 -8
-43 -7 -44 -8 31 c-5 17 -18 39 -29 49 -19 18 -34 19 -115 13 -16 -1 -39 1
-51 5 -11 4 -23 4 -27 1z m44 -28 c22 -11 30 -11 50 0 34 19 54 17 83 -8 22
-20 25 -32 28 -103 l3 -80 -38 -3 -37 -3 0 66 c0 51 -4 67 -16 72 -25 9 -34
-17 -30 -79 l5 -58 -39 0 -39 0 -3 68 c-3 59 -5 67 -23 67 -18 0 -20 -8 -23
-72 l-3 -73 -34 0 -35 0 0 83 c0 45 -3 93 -7 106 -6 23 -5 24 38 19 24 -3 53
-1 64 3 27 11 27 11 56 -5z m-217 -40 c15 -24 49 -156 42 -163 -2 -3 -19 -6
-37 -6 -31 -2 -32 0 -48 58 -12 43 -21 61 -35 63 -20 4 -20 -2 0 -109 6 -35 5
-37 -26 -44 -38 -8 -43 -3 -59 71 -13 59 -20 67 -41 54 -12 -7 -12 -18 2 -74
l15 -66 -35 -10 c-20 -5 -37 -8 -38 -7 -1 1 -13 46 -26 100 l-24 98 23 5 c13
4 29 4 37 1 8 -3 20 0 26 8 16 19 57 27 79 16 14 -8 23 -6 36 9 31 34 87 32
109 -4z m492 28 c20 -5 21 -8 10 -68 -13 -69 -11 -86 10 -86 17 0 30 30 39 94
l7 46 37 -6 c20 -4 37 -7 38 -8 3 -3 -26 -175 -31 -192 -6 -17 -66 -4 -66 14
0 12 -3 13 -12 4 -7 -7 -22 -12 -34 -12 -66 0 -85 39 -68 142 6 40 12 74 13
76 2 4 35 2 57 -4z m262 -10 c19 -6 22 -11 17 -34 -5 -22 -2 -28 15 -33 16 -4
18 -9 11 -29 -6 -15 -16 -22 -29 -21 -30 4 -53 -65 -28 -83 12 -8 15 -19 10
-39 -6 -24 -10 -26 -38 -21 -34 7 -66 38 -66 66 0 10 7 36 14 58 9 25 11 44 5
47 -16 11 -10 47 10 52 11 3 21 13 24 24 5 20 17 23 55 13z m-471 -91 c-3 -10
-5 -4 -5 12 0 17 2 24 5 18 2 -7 2 -21 0 -30z m240 -5 c-3 -7 -5 -2 -5 12 0
14 2 19 5 13 2 -7 2 -19 0 -25z m-853 -37 c11 -12 21 -38 24 -70 4 -45 2 -53
-25 -80 -17 -16 -43 -33 -57 -37 -71 -18 -142 46 -133 119 6 47 21 65 71 88
44 19 87 12 120 -20z m973 7 c-3 -8 -6 -5 -6 6 -1 11 2 17 5 13 3 -3 4 -12 1
-19z m316 -18 c30 -33 33 -51 16 -99 -12 -35 -19 -37 -57 -17 -15 7 -38 17
-52 21 -22 7 -23 6 -12 -8 8 -9 28 -21 46 -27 28 -9 32 -14 28 -36 -4 -24 -8
-25 -40 -19 -93 17 -136 90 -97 165 34 66 117 76 168 20z m-1555 1 c9 -26 8
-29 -24 -45 -59 -28 -70 -91 -22 -136 29 -27 66 -25 103 4 l29 23 19 -23 c22
-28 18 -37 -32 -68 -77 -49 -145 -40 -194 25 -63 84 -35 180 68 233 40 21 41
21 53 -13z m1365 -21 c-3 -11 -9 -20 -14 -20 -11 0 -11 3 -3 24 9 23 23 20 17
-4z"/>
<path d="M1287 3443 c-14 -13 -6 -54 14 -74 19 -19 23 -20 37 -5 15 14 14 19
-1 51 -16 33 -35 44 -50 28z m43 -62 c-1 -13 -4 -12 -15 3 -8 11 -15 27 -15
35 1 13 4 12 15 -3 8 -11 15 -27 15 -35z"/>
<path d="M2596 3441 c-3 -5 1 -12 10 -15 25 -10 34 -7 34 9 0 16 -35 21 -44 6z"/>
<path d="M2857 3455 c-56 -77 -157 -227 -157 -233 0 -4 42 -35 94 -70 51 -34
103 -73 116 -87 13 -14 29 -25 37 -25 7 0 13 -6 13 -13 0 -16 52 -67 68 -67 7
0 12 -5 12 -11 0 -7 20 -34 45 -60 25 -27 50 -60 57 -74 6 -14 15 -25 20 -25
4 0 8 -6 8 -13 0 -26 51 -89 67 -83 13 5 14 4 4 -8 -10 -12 -7 -23 15 -55 15
-23 32 -41 38 -41 7 0 10 -16 8 -42 -3 -52 43 -144 70 -142 16 2 16 -1 2 -27
-12 -24 -13 -37 -4 -70 13 -46 25 -54 71 -41 24 6 34 14 34 28 0 28 35 39 51
15 12 -17 19 -18 54 -9 33 9 40 15 40 34 0 13 6 24 13 24 7 0 18 5 24 11 15
15 -20 87 -45 95 -52 17 -63 27 -57 55 13 58 -50 139 -107 139 l-29 0 21 22
c32 34 27 93 -10 128 -16 15 -30 37 -30 48 0 11 -10 33 -23 49 -13 15 -34 45
-46 66 -12 20 -26 37 -29 37 -4 0 -25 -12 -47 -27 -22 -15 -34 -20 -27 -11 41
50 27 125 -27 149 -17 8 -36 26 -42 42 -7 15 -21 33 -32 38 -10 6 -33 26 -49
45 -17 19 -36 34 -43 34 -8 0 -30 -19 -49 -42 -20 -23 -36 -38 -36 -34 0 9 37
61 73 100 15 17 27 38 27 46 0 13 -156 131 -171 130 -2 0 -12 -12 -22 -25z
m103 -51 c39 -26 70 -50 70 -54 0 -4 -8 -17 -17 -29 l-18 -22 -41 31 c-37 27
-43 28 -55 14 -11 -13 -8 -19 17 -39 16 -14 32 -24 37 -25 12 0 8 -25 -7 -45
-13 -19 -15 -18 -56 10 -34 24 -43 26 -51 14 -14 -22 -11 -27 31 -55 45 -30
47 -34 22 -63 l-17 -22 -73 51 c-39 28 -72 54 -72 58 0 11 144 221 153 222 4
0 39 -21 77 -46z m120 -199 c0 -6 14 -16 30 -22 22 -8 32 -20 36 -42 4 -21 12
-31 24 -31 32 0 63 -34 63 -69 0 -26 -11 -44 -58 -91 l-59 -60 -23 22 c-31 29
-29 38 17 83 39 38 53 75 28 75 -7 0 -34 -21 -60 -47 l-48 -47 -27 27 -27 27
47 48 c26 26 47 53 47 60 0 26 -38 10 -80 -33 l-44 -45 -23 22 c-13 12 -23 26
-23 32 0 6 30 41 67 78 l67 68 23 -22 c13 -12 23 -26 23 -33z m-156 -2 c14 -8
16 -13 6 -12 -8 0 -28 11 -45 25 -30 26 -26 24 39 -13z m392 -240 c7 -10 14
-24 14 -32 0 -7 11 -22 25 -33 16 -13 25 -29 25 -48 0 -19 7 -33 20 -40 11 -6
27 -22 36 -35 25 -39 5 -74 -73 -125 l-66 -43 -18 24 c-27 35 -24 44 24 72 56
33 74 54 59 69 -8 8 -27 1 -72 -25 l-61 -37 -19 32 -19 32 54 36 c32 20 55 42
55 53 0 25 -19 21 -73 -13 -26 -16 -52 -30 -57 -30 -14 0 -44 49 -36 58 14 14
151 101 160 102 5 0 15 -8 22 -17z m186 -350 c50 -54 44 -117 -14 -153 -18
-11 -37 -18 -43 -17 -5 2 -20 27 -31 56 -12 29 -24 48 -28 43 -3 -6 1 -29 10
-52 14 -36 15 -43 3 -51 -26 -17 -40 -9 -59 34 -44 95 -3 166 96 167 31 0 46
-6 66 -27z m89 -163 c16 0 49 -39 49 -59 0 -6 -11 -13 -25 -17 -17 -4 -24 -12
-22 -28 2 -16 -4 -22 -25 -24 -21 -3 -28 1 -28 14 0 13 -6 15 -32 10 -39 -8
-58 -23 -51 -41 3 -9 -4 -16 -21 -21 -32 -8 -43 0 -51 37 -10 44 15 76 71 90
25 7 48 18 51 26 7 19 45 33 58 22 5 -5 17 -9 26 -9z"/>
<path d="M3449 2558 c9 -25 31 -36 31 -16 0 15 -19 38 -32 38 -4 0 -4 -10 1
-22z"/>
<path d="M1832 3309 c-314 -28 -607 -167 -837 -396 -143 -143 -265 -339 -325
-523 -31 -95 -70 -292 -70 -355 0 -31 1 -32 31 -26 30 6 31 8 34 71 2 36 5 76
8 90 2 14 5 36 6 49 1 20 3 21 16 11 14 -11 14 -9 0 16 -8 16 -15 38 -15 49 0
19 24 62 40 75 4 3 17 32 29 65 35 95 62 146 73 138 7 -3 8 -1 4 6 -11 16 90
171 144 221 9 8 19 23 23 33 4 9 17 22 29 27 13 5 19 9 14 9 -5 1 -3 7 4 15 6
8 18 12 26 9 8 -3 17 4 23 18 12 33 47 63 62 53 7 -4 10 -3 5 4 -4 6 14 25 41
43 27 18 49 36 51 40 2 4 10 5 19 2 10 -4 14 -2 10 4 -9 14 148 91 263 131
125 44 264 66 410 65 117 0 282 -17 305 -31 5 -3 16 -7 25 -8 67 -6 325 -119
314 -136 -4 -7 -2 -8 5 -4 12 8 101 -42 101 -56 0 -5 6 -8 14 -8 8 0 24 -12
36 -27 12 -16 19 -21 15 -13 -4 8 2 5 13 -7 11 -13 23 -23 26 -23 15 0 165
-163 159 -173 -3 -5 -2 -7 3 -4 10 6 127 -162 144 -208 6 -15 7 -31 4 -37 -5
-7 -2 -8 6 -3 10 6 12 4 7 -9 -4 -9 -3 -15 2 -12 12 8 49 -81 86 -210 3 -10
56 -26 63 -19 8 7 -44 157 -85 250 -62 138 -157 277 -261 383 -249 254 -523
382 -880 412 -64 5 -119 9 -122 8 -3 0 -47 -4 -98 -9z"/>
<path d="M771 3247 c-12 -23 -21 -50 -19 -59 1 -9 -22 -45 -54 -81 -32 -36
-58 -69 -58 -72 0 -4 10 -15 23 -26 l22 -18 -36 -1 c-46 0 -86 -31 -110 -84
-25 -56 -24 -74 6 -82 13 -3 29 -12 35 -19 9 -11 2 -13 -42 -8 -52 5 -56 4
-81 -27 -16 -18 -27 -44 -27 -61 0 -16 -4 -29 -9 -29 -5 0 -16 -17 -26 -37 -9
-21 -26 -56 -36 -79 -10 -22 -19 -45 -19 -51 0 -6 21 -19 46 -29 l46 -17 -29
-15 c-15 -8 -36 -24 -46 -36 l-18 -21 10 22 c6 12 11 26 11 31 0 15 -66 46
-84 39 -37 -15 -61 -140 -36 -188 13 -24 61 -49 96 -49 17 0 39 13 65 39 22
21 39 37 39 35 0 -2 -8 -20 -17 -40 -17 -35 -17 -36 2 -50 37 -27 67 -29 87
-5 25 32 41 98 34 143 -4 23 -2 38 4 38 6 0 20 21 32 48 11 26 32 69 45 95 14
26 22 54 19 62 -3 8 -1 15 4 15 6 0 20 21 33 47 12 26 34 58 50 71 15 13 27
28 27 32 0 14 47 80 91 128 21 24 39 47 39 52 0 4 -20 26 -45 48 -25 22 -45
42 -45 46 0 3 8 14 17 24 16 16 19 15 49 -15 26 -26 40 -33 72 -33 33 0 45 6
72 36 l31 36 -28 32 c-15 17 -29 33 -30 35 -2 2 -10 -2 -18 -9 -13 -11 -19
-11 -32 3 -13 13 -14 19 -4 31 10 12 8 21 -11 46 -18 25 -28 30 -50 26 -16 -3
-31 0 -38 9 -20 24 -34 17 -59 -28z m61 -3 c14 -14 21 -14 33 -4 12 10 18 9
31 -5 15 -14 15 -20 5 -37 -18 -29 22 -71 59 -63 19 4 28 0 39 -17 12 -20 11
-24 -18 -50 -17 -15 -38 -28 -47 -28 -8 0 -36 20 -63 45 -26 25 -51 42 -54 38
-10 -9 -38 18 -36 36 1 9 -1 24 -5 33 -5 10 -1 27 9 42 20 31 23 31 47 10z
m-54 -124 c24 -23 27 -35 12 -45 -20 -12 -9 -36 35 -78 l46 -42 -28 -27 -28
-27 -77 67 -76 67 21 23 c12 12 27 20 34 18 8 -3 13 2 13 13 0 25 10 51 19 51
4 0 17 -9 29 -20z m-41 -192 c34 -24 63 -46 63 -49 0 -3 -13 -21 -30 -39 -16
-18 -30 -38 -30 -44 0 -21 -35 -46 -65 -46 -60 0 -79 51 -50 135 6 17 4 17
-14 -4 -12 -13 -21 -29 -21 -37 0 -16 -18 -18 -38 -5 -36 22 42 131 94 131 17
0 54 -17 91 -42z m-124 -179 l66 -30 -14 -32 c-16 -35 -20 -36 -87 -5 -45 20
-78 20 -78 -2 0 -6 29 -24 65 -40 l66 -30 -17 -32 c-9 -18 -18 -34 -19 -36 -1
-2 -27 9 -58 24 -52 26 -87 27 -87 4 0 -6 29 -24 65 -41 l65 -29 -17 -34 -16
-34 -56 25 c-31 14 -72 32 -91 40 -19 8 -36 16 -38 18 -8 7 23 55 35 55 8 0
11 5 8 10 -12 19 7 71 29 81 17 8 21 17 18 44 -5 41 25 75 67 75 16 0 58 -14
94 -31z m-48 -87 c-3 -3 -11 0 -18 7 -9 10 -8 11 6 5 10 -3 15 -9 12 -12z
m-250 -204 c29 -13 30 -16 10 -42 -19 -25 -19 -66 -1 -66 7 0 21 11 30 25 43
66 101 84 144 45 38 -36 42 -113 7 -166 -18 -27 -33 -30 -60 -10 -17 12 -17
14 -2 37 21 29 23 79 3 79 -7 0 -21 -11 -30 -25 -45 -69 -103 -85 -146 -40
-28 30 -31 95 -6 144 19 36 17 35 51 19z"/>
<path d="M672 2849 c1 -12 9 -24 16 -27 9 -3 13 3 10 19 -1 12 -9 24 -16 27
-9 3 -13 -3 -10 -19z"/>
<path d="M2128 2443 c7 -3 16 -2 19 1 4 3 -2 6 -13 5 -11 0 -14 -3 -6 -6z"/>
<path d="M2190 2423 c0 -6 8 -17 18 -24 16 -13 16 -13 2 6 -8 11 -16 22 -17
24 -2 2 -3 0 -3 -6z"/>
<path d="M1986 2388 c3 -5 10 -6 15 -3 13 9 11 12 -6 12 -8 0 -12 -4 -9 -9z"/>
<path d="M2049 2381 c-18 -14 -24 -29 -24 -59 0 -48 24 -78 67 -87 l30 -7 -30
-32 c-19 -20 -40 -62 -58 -119 -26 -81 -32 -90 -63 -103 -18 -8 -37 -14 -41
-14 -3 0 -17 23 -30 51 -28 58 -66 84 -114 76 l-31 -6 32 15 c37 16 53 41 53
82 0 35 -39 75 -74 75 -86 0 -113 -112 -37 -153 19 -9 18 -11 -9 -38 -19 -19
-36 -55 -50 -103 -19 -64 -28 -80 -73 -121 -49 -44 -51 -48 -35 -64 16 -16 20
-15 72 21 30 21 59 50 64 64 l10 26 6 -25 c5 -17 -2 -49 -20 -95 -40 -106 -47
-135 -35 -149 11 -13 5 -43 -45 -214 -15 -55 -16 -65 -3 -73 8 -5 19 -9 25 -9
6 0 33 61 60 135 45 124 51 135 74 135 22 0 31 -13 79 -126 54 -124 71 -148
94 -125 9 9 1 42 -30 136 -39 117 -40 125 -22 130 23 7 24 21 5 66 -32 79 -32
77 24 85 l51 7 -6 41 c-9 59 -15 76 -26 76 -5 0 -9 4 -9 9 0 4 21 14 46 21 25
7 56 24 68 37 l22 24 12 -73 c10 -70 10 -78 -17 -158 -23 -68 -31 -117 -40
-245 -7 -88 -13 -169 -14 -180 -2 -15 6 -21 36 -26 25 -4 40 -2 42 5 2 6 8 63
13 126 9 106 37 230 52 230 3 0 12 -30 19 -67 10 -49 32 -101 78 -185 36 -65
70 -118 75 -118 12 0 68 29 68 36 0 2 -29 55 -65 117 l-64 112 10 105 c5 58
12 110 14 116 2 7 27 18 55 25 29 7 54 19 57 26 9 23 -27 123 -44 123 -12 0
-14 7 -10 36 5 32 -1 49 -49 130 -42 71 -64 98 -94 115 -38 22 -39 24 -25 45
23 35 19 87 -8 112 -29 28 -86 29 -118 3z m231 -423 c0 -58 -24 -44 -28 17 -3
43 -1 47 12 36 10 -8 16 -29 16 -53z m-414 -86 c-12 -11 -18 7 -10 30 l8 23 4
-23 c2 -13 1 -26 -2 -30z"/>
<path d="M748 2383 c6 -2 18 -2 25 0 6 3 1 5 -13 5 -14 0 -19 -2 -12 -5z"/>
<path d="M835 2340 c10 -11 20 -20 23 -20 3 0 -3 9 -13 20 -10 11 -20 20 -23
20 -3 0 3 -9 13 -20z"/>
<path d="M718 2315 c-9 -21 -7 -30 13 -60 13 -20 34 -38 47 -41 21 -6 22 -12
22 -88 0 -73 -3 -85 -22 -103 -39 -35 -88 -55 -120 -49 -22 4 -38 0 -63 -19
-41 -32 -47 -55 -24 -84 18 -22 18 -24 -12 -82 l-30 -60 -58 7 c-69 8 -128
-14 -178 -66 -42 -43 -56 -88 -51 -159 8 -104 79 -175 188 -188 97 -11 192 60
220 165 17 67 -13 162 -62 196 -12 9 -18 19 -14 23 11 11 145 -136 152 -167 3
-14 11 -36 17 -49 9 -19 9 -25 0 -28 -18 -6 -16 -33 3 -33 8 0 35 5 60 11 37
10 45 16 52 43 8 30 10 31 66 31 l58 0 13 -37 c19 -56 41 -85 87 -116 36 -23
52 -27 112 -27 63 1 76 4 117 32 54 37 89 107 89 175 0 93 -77 187 -167 204
-32 6 -108 -5 -144 -20 -11 -5 -21 3 -34 27 -17 32 -17 36 -2 57 8 12 26 28
39 34 13 6 31 28 42 49 l18 38 -38 57 c-49 74 -200 224 -241 241 -18 7 -34 22
-37 35 -17 70 -94 103 -118 51z m176 -340 c10 -50 3 -63 -67 -122 -61 -53 -63
-53 -129 -53 -38 0 -68 2 -68 5 0 4 7 19 15 35 15 28 14 29 -20 40 -19 6 -35
15 -35 19 0 16 13 20 31 11 12 -7 40 -5 86 5 109 25 128 33 146 65 24 39 33
38 41 -5z m96 -175 c0 -5 -5 -10 -11 -10 -5 0 -7 5 -4 10 3 6 8 10 11 10 2 0
4 -4 4 -10z m-216 -101 c9 -91 8 -109 -9 -116 -16 -6 -40 19 -125 126 l-40 51
83 0 84 0 7 -61z m183 54 c-2 -5 -24 -42 -48 -83 l-44 -75 -3 74 c-2 53 1 77
10 82 16 11 91 12 85 2z m76 -46 c14 -22 13 -26 -8 -53 -13 -17 -27 -46 -32
-65 -8 -31 -12 -34 -52 -37 -39 -3 -43 -1 -37 15 10 26 100 163 107 163 4 0
14 -10 22 -23z m238 -23 c93 -47 118 -183 46 -251 -18 -17 -42 -36 -54 -42
-31 -16 -109 -14 -142 4 -40 20 -81 72 -81 101 0 22 3 24 54 24 30 0 58 -4 61
-10 10 -17 51 -11 69 9 17 18 17 20 -3 40 -12 12 -27 21 -33 21 -18 1 -79 93
-69 103 26 26 101 27 152 1z m-778 0 c9 -10 -29 -79 -63 -114 -25 -26 -28 -34
-19 -51 7 -14 18 -19 37 -17 21 2 28 9 32 33 6 38 51 115 67 115 23 0 55 -69
55 -121 0 -202 -291 -219 -310 -18 -2 26 -2 58 1 71 7 27 62 87 92 99 24 9 99
12 108 3z m587 -15 c0 -6 -4 -7 -10 -4 -5 3 -10 11 -10 16 0 6 5 7 10 4 6 -3
10 -11 10 -16z m60 -99 c0 -5 -22 -10 -50 -10 -45 0 -50 2 -50 23 0 12 7 33
17 46 l16 24 34 -36 c18 -20 33 -41 33 -47z m-117 -27 c-7 -2 -19 -2 -25 0 -7
3 -2 5 12 5 14 0 19 -2 13 -5z"/>
<path d="M800 1900 c-23 -7 -23 -8 -3 -9 12 -1 25 4 28 9 3 6 5 10 3 9 -2 -1
-14 -5 -28 -9z"/>
<path d="M670 1726 c0 -2 6 -9 13 -15 10 -8 14 -7 14 4 0 8 -6 15 -14 15 -7 0
-13 -2 -13 -4z"/>
<path d="M724 1679 c-3 -6 -2 -15 3 -20 5 -5 9 -1 9 11 0 23 -2 24 -12 9z"/>
<path d="M1246 1645 c10 -8 24 -14 29 -14 6 0 1 6 -9 14 -11 8 -24 15 -30 15
-5 0 -1 -7 10 -15z"/>
<path d="M1180 1640 c0 -5 9 -14 20 -20 11 -6 20 -9 20 -8 0 2 -9 11 -20 21
-11 9 -20 13 -20 7z"/>
<path d="M1301 1593 c7 -12 15 -20 18 -17 3 2 -3 12 -13 22 -17 16 -18 16 -5
-5z"/>
<path d="M1289 1463 l-24 -28 28 24 c25 23 32 31 24 31 -2 0 -14 -12 -28 -27z"/>
<path d="M1664 2258 l-19 -23 23 19 c12 11 22 21 22 23 0 8 -8 2 -26 -19z"/>
<path d="M880 2266 c0 -2 7 -7 16 -10 8 -3 12 -2 9 4 -6 10 -25 14 -25 6z"/>
<path d="M2992 2245 c-66 -21 -146 -71 -187 -116 -44 -49 -92 -148 -103 -210
-7 -39 -11 -44 -41 -50 -62 -13 -66 -24 -69 -189 l-4 -150 56 0 56 0 0 -60 0
-61 78 3 77 3 1 45 c1 25 2 51 3 58 1 9 57 12 245 12 273 0 256 5 256 -76 l0
-44 75 0 75 0 0 60 0 60 55 0 55 0 0 150 c0 137 -2 152 -20 170 -11 11 -33 20
-48 20 -26 0 -29 4 -40 58 -41 196 -211 334 -411 331 -36 -1 -85 -7 -109 -14z
m244 -114 c24 -11 44 -23 44 -27 0 -4 -15 -25 -34 -48 -18 -23 -36 -51 -40
-63 -8 -25 -14 -27 -36 -13 -10 6 -15 25 -15 57 0 40 -4 49 -24 59 -49 25 -97
-28 -70 -77 9 -17 8 -23 -2 -30 -21 -13 -39 -11 -39 6 0 8 -12 28 -27 44 -39
41 -53 59 -53 65 0 9 57 36 97 46 53 13 146 4 199 -19z m-381 -147 c-23 -17
-34 -2 -14 22 9 11 15 12 23 4 8 -8 6 -15 -9 -26z m524 -3 c-16 -5 -33 15 -24
30 6 9 12 7 22 -7 9 -13 10 -20 2 -23z m-481 -68 c2 -7 -3 -13 -11 -13 -8 0
-20 -7 -27 -15 -27 -32 -71 -8 -56 31 7 19 87 16 94 -3z m337 7 c3 -6 -5 -14
-19 -20 -14 -5 -26 -14 -26 -20 0 -6 -29 -10 -70 -10 -57 0 -77 4 -100 22 -16
11 -27 25 -24 30 7 12 231 10 239 -2z m178 -12 c12 -43 -17 -51 -63 -16 -36
26 -30 38 19 38 31 0 40 -4 44 -22z m-600 -139 c30 -16 37 -28 37 -66 0 -22
-7 -37 -22 -47 -30 -21 -50 -20 -82 5 -35 28 -35 70 0 98 31 24 37 25 67 10z
m670 -21 c25 -29 21 -63 -9 -87 -32 -25 -52 -26 -82 -5 -22 15 -30 66 -14 90
24 37 74 38 105 2z"/>
<path d="M3187 2093 c3 -7 6 -13 8 -13 2 0 5 6 8 13 3 8 -1 14 -8 14 -7 0 -11
-6 -8 -14z"/>
<path d="M3210 2075 c-11 -13 -10 -14 4 -9 9 3 16 10 16 15 0 13 -6 11 -20 -6z"/>
<path d="M3005 2070 c3 -5 8 -10 11 -10 2 0 4 5 4 10 0 6 -5 10 -11 10 -5 0
-7 -4 -4 -10z"/>
<path d="M2764 1729 c-4 -7 -3 -9 4 -5 5 3 13 0 15 -6 4 -9 6 -10 6 -1 1 17
-16 25 -25 12z"/>
<path d="M2790 1680 c-9 -6 -10 -10 -3 -10 6 0 15 5 18 10 8 12 4 12 -15 0z"/>
<path d="M2875 2240 c-3 -6 1 -7 9 -4 18 7 21 14 7 14 -6 0 -13 -4 -16 -10z"/>
<path d="M930 2237 c0 -3 12 -12 26 -22 15 -9 23 -12 20 -6 -7 11 -46 35 -46
28z"/>
<path d="M1032 2143 c18 -18 36 -33 41 -33 6 0 -2 11 -17 25 -15 14 -25 29
-22 33 2 4 -4 8 -15 8 -16 0 -14 -5 13 -33z"/>
<path d="M1880 2171 c0 -6 4 -13 10 -16 6 -3 7 1 4 9 -7 18 -14 21 -14 7z"/>
<path d="M2771 2147 c-13 -21 -12 -21 5 -5 10 10 16 20 13 22 -3 3 -11 -5 -18
-17z"/>
<path d="M2730 2109 c0 -5 5 -7 10 -4 6 3 10 8 10 11 0 2 -4 4 -10 4 -5 0 -10
-5 -10 -11z"/>
<path d="M761 2074 c0 -11 3 -14 6 -6 3 7 2 16 -1 19 -3 4 -6 -2 -5 -13z"/>
<path d="M1657 2073 c-4 -3 -7 -11 -7 -17 0 -6 5 -5 12 2 6 6 9 14 7 17 -3 3
-9 2 -12 -2z"/>
<path d="M1925 2048 c4 -13 11 -27 16 -33 5 -5 4 5 -2 23 -12 36 -24 44 -14
10z"/>
<path d="M1605 1916 c-41 -48 -45 -58 -15 -29 19 18 32 34 29 37 -2 2 -8 -1
-14 -8z"/>
<path d="M2427 1869 c4 -13 8 -18 11 -10 2 7 -1 18 -6 23 -8 8 -9 4 -5 -13z"/>
<path d="M490 1812 c0 -45 4 -52 31 -45 48 13 43 83 -6 83 -22 0 -25 -4 -25
-38z"/>
<path d="M1085 1789 c-4 -6 -5 -12 -2 -15 2 -3 7 2 10 11 7 17 1 20 -8 4z"/>
<path d="M1148 1783 c7 -3 16 -2 19 1 4 3 -2 6 -13 5 -11 0 -14 -3 -6 -6z"/>
<path d="M1500 1776 c0 -2 8 -10 18 -17 15 -13 16 -12 3 4 -13 16 -21 21 -21
13z"/>
<path d="M1623 1725 c0 -8 4 -12 9 -9 5 3 6 10 3 15 -9 13 -12 11 -12 -6z"/>
<path d="M687 1523 c-10 -16 3 -67 14 -56 5 5 5 22 1 38 -5 18 -11 25 -15 18z"/>
<path d="M1591 1494 c0 -11 3 -14 6 -6 3 7 2 16 -1 19 -3 4 -6 -2 -5 -13z"/>
<path d="M3166 1478 c-7 -13 -19 -40 -26 -60 -6 -21 -16 -40 -21 -44 -6 -3
-15 -17 -20 -32 -17 -43 -123 -201 -136 -202 -7 0 -13 -6 -13 -13 0 -16 -157
-173 -170 -169 -6 1 -9 -2 -8 -7 3 -11 -131 -106 -164 -116 -13 -4 -30 -13
-38 -20 -29 -25 -201 -97 -265 -111 -167 -35 -232 -44 -357 -44 -75 0 -156 4
-180 9 -24 5 -61 12 -82 15 -55 9 -196 57 -287 99 -100 45 -239 135 -239 154
0 8 -4 12 -9 9 -12 -8 -71 42 -68 57 1 7 -4 11 -11 9 -7 -1 -26 13 -41 30 -16
18 -48 53 -70 78 -23 24 -41 47 -41 51 0 4 -6 14 -14 22 -25 24 -95 138 -108
173 -10 28 -17 34 -40 34 -32 0 -34 -5 -13 -51 121 -273 425 -546 738 -664
342 -128 760 -105 1082 61 186 96 360 242 482 404 57 77 183 309 183 338 0 21
-49 13 -64 -10z"/>
<path d="M1746 1471 c-3 -5 1 -11 9 -14 9 -4 12 -1 8 9 -6 16 -10 17 -17 5z"/>
<path d="M2142 1430 c0 -14 2 -19 5 -12 2 6 2 18 0 25 -3 6 -5 1 -5 -13z"/>
<path d="M2186 1407 c3 -10 9 -15 12 -12 3 3 0 11 -7 18 -10 9 -11 8 -5 -6z"/>
<path d="M810 1400 c-24 -15 -7 -18 20 -3 14 7 18 13 10 13 -8 0 -22 -4 -30
-10z"/>
<path d="M2876 1383 c-6 -14 -5 -15 5 -6 7 7 10 15 7 18 -3 3 -9 -2 -12 -12z"/>
<path d="M984 1378 c-4 -7 -4 -10 1 -6 4 4 15 2 24 -5 14 -11 14 -10 2 6 -16
20 -18 21 -27 5z"/>
<path d="M1376 1373 c-6 -14 -5 -15 5 -6 7 7 10 15 7 18 -3 3 -9 -2 -12 -12z"/>
<path d="M1846 1357 c3 -10 9 -15 12 -12 3 3 0 11 -7 18 -10 9 -11 8 -5 -6z"/>
<path d="M1686 1325 c-9 -26 -7 -32 5 -12 6 10 9 21 6 23 -2 3 -7 -2 -11 -11z"/>
<path d="M2132 1310 c0 -14 2 -19 5 -12 2 6 2 18 0 25 -3 6 -5 1 -5 -13z"/>
</g>
</svg>
